<?xml version="1.0" standalone="no"?>
<!DOCTYPE svg PUBLIC "-//W3C//DTD SVG 20010904//EN"
 "http://www.w3.org/TR/2001/REC-SVG-20010904/DTD/svg10.dtd">
<svg version="1.0" xmlns="http://www.w3.org/2000/svg"
 width="704.000000pt" height="704.000000pt" viewBox="0 0 704.000000 704.000000"
 preserveAspectRatio="xMidYMid meet">
<metadata>
Created by potrace 1.11, written by Peter Selinger 2001-2013
</metadata>
<g transform="translate(0.000000,704.000000) scale(0.100000,-0.100000)"
fill="#000000" stroke="none">
<path d="M3109 6885 c-65 -13 -132 -46 -170 -81 -28 -27 -86 -134 -93 -174 -2
-14 -5 -25 -6 -25 -9 0 -27 -262 -30 -441 0 -19 -8 -22 -67 -29 -38 -4 -77 -9
-88 -11 -11 -3 -36 -7 -55 -9 -19 -3 -78 -15 -130 -26 -52 -12 -104 -23 -115
-24 -70 -11 -297 -82 -465 -147 -64 -24 -288 -136 -295 -147 -3 -6 -10 -9 -14
-7 -4 3 -17 -4 -29 -14 -12 -11 -23 -20 -26 -20 -8 0 -109 -71 -170 -119 -68
-55 -177 -165 -221 -226 -17 -22 -32 -42 -35 -45 -6 -5 -35 -54 -78 -132 -37
-66 -81 -203 -98 -303 -1 -5 -3 -12 -4 -15 -9 -22 -13 -283 -6 -355 22 -215
83 -398 192 -582 35 -58 93 -139 108 -152 9 -8 16 -17 16 -22 0 -4 10 -19 23
-32 12 -13 43 -45 68 -73 25 -27 72 -72 103 -99 75 -65 328 -233 347 -231 4 1
15 -6 25 -15 11 -9 39 -27 64 -40 25 -13 47 -26 50 -29 3 -3 37 -21 75 -40 39
-19 72 -38 73 -42 2 -5 9 -8 16 -8 19 0 229 -114 326 -178 160 -104 310 -229
310 -259 0 -7 4 -13 8 -13 4 0 18 -21 31 -47 41 -86 34 -252 -14 -299 -7 -8
-15 -17 -17 -22 -6 -15 -73 -59 -116 -76 -56 -21 -125 -30 -237 -29 -102 0
-125 3 -305 39 -83 17 -504 148 -610 191 -16 6 -32 11 -52 16 -7 1 -17 5 -23
8 -12 7 -108 33 -188 52 -91 22 -184 11 -236 -28 -70 -52 -144 -162 -167 -250
-11 -42 -11 -45 -14 -47 -2 -4 -7 -24 -15 -63 -3 -16 -10 -48 -15 -70 -22 -99
-32 -352 -17 -420 27 -123 88 -206 217 -297 232 -164 534 -312 795 -391 68
-20 321 -84 365 -91 19 -3 46 -8 60 -11 31 -7 182 -33 230 -39 160 -22 193
-26 368 -41 39 -3 46 -9 48 -38 0 -12 4 -79 8 -148 14 -248 20 -298 47 -385
24 -77 81 -152 140 -182 87 -44 141 -50 490 -49 265 0 316 2 379 18 40 11 82
26 92 36 10 9 18 13 18 8 0 -13 95 88 107 115 32 69 35 92 49 390 3 69 7 155
8 192 4 68 11 92 26 83 4 -3 32 0 61 5 30 6 72 13 94 16 60 7 187 32 310 61
61 14 117 27 125 28 8 2 15 4 15 5 0 1 7 3 16 5 9 1 43 11 75 20 33 9 66 19
74 20 46 10 303 105 400 147 55 24 241 118 291 146 76 42 84 47 97 59 7 7 17
13 22 13 5 0 15 6 22 13 7 6 31 24 53 38 96 64 218 179 297 279 32 41 62 80
68 86 19 25 99 182 120 239 13 33 26 69 31 80 7 17 22 85 35 155 33 175 24
388 -25 578 -23 87 -99 229 -180 337 -45 60 -233 255 -245 255 -4 0 -17 9 -29
21 -50 47 -199 137 -370 223 -185 93 -485 230 -532 242 -15 4 -276 120 -310
138 -16 9 -36 16 -42 16 -7 0 -13 3 -13 8 0 4 -15 13 -32 21 -52 22 -238 134
-238 143 0 4 -6 8 -13 8 -23 0 -124 114 -151 169 -50 105 -18 270 68 349 37
34 120 77 164 86 15 3 41 8 57 12 48 10 251 11 317 2 72 -10 89 -13 148 -27
25 -7 56 -14 69 -17 13 -3 67 -19 120 -36 53 -17 101 -33 106 -34 6 -2 30 -11
55 -20 103 -38 238 -72 274 -69 132 13 288 190 364 412 12 34 24 81 28 105 3
24 8 54 10 68 14 99 3 227 -23 267 -9 13 -12 23 -9 23 12 0 -54 89 -96 130
-123 123 -354 239 -648 326 -47 14 -92 27 -100 29 -8 1 -33 8 -55 13 -37 10
-171 38 -223 48 -44 8 -138 23 -177 29 -22 3 -53 8 -70 10 -50 8 -107 15 -180
21 -38 4 -83 8 -100 10 -16 2 -54 5 -82 7 -29 2 -55 6 -59 10 -4 3 -8 57 -10
119 -2 62 -6 133 -9 158 -11 88 -23 155 -32 185 -4 11 -8 25 -9 32 -1 7 -14
37 -28 67 -31 66 -81 107 -166 137 -62 22 -79 23 -400 24 -221 1 -354 -2 -391
-10z"/>
</g>
</svg>
